<svg width="233" height="175" viewBox="0 0 233 175" fill="none" xmlns="http://www.w3.org/2000/svg">
<g opacity="0.2">
<path fill-rule="evenodd" clip-rule="evenodd" d="M166.162 173.641L149.456 144.698L132.751 115.755L166.162 115.755L199.573 115.755L182.868 144.698L166.162 173.641Z" fill="#29ABE2"/>
<path fill-rule="evenodd" clip-rule="evenodd" d="M166.161 57.8887L149.455 86.8314L132.75 115.758L166.161 115.758L199.588 115.758L182.866 86.8314L166.161 57.8887Z" fill="#29ABE2"/>
<path fill-rule="evenodd" clip-rule="evenodd" d="M132.754 115.758L116.032 86.8314L99.3268 57.8887L132.754 57.8887L166.165 57.8887L149.459 86.8314L132.754 115.758Z" fill="#29ABE2"/>
<path fill-rule="evenodd" clip-rule="evenodd" d="M132.754 -1.46045e-06L116.032 28.9427L99.3268 57.8854L132.754 57.8854L166.165 57.8854L149.459 28.9427L132.754 -1.46045e-06Z" fill="#29ABE2"/>
<path fill-rule="evenodd" clip-rule="evenodd" d="M199.573 115.755L216.294 144.698L233 173.641L199.573 173.641L166.162 173.641L182.867 144.698L199.573 115.755Z" fill="#29ABE2"/>
<path fill-rule="evenodd" clip-rule="evenodd" d="M66.9687 1.35913L50.263 30.3018L33.5574 59.2445L66.9687 59.2445L100.38 59.2445L83.6743 30.3018L66.9687 1.35913Z" fill="#0071BC"/>
<path fill-rule="evenodd" clip-rule="evenodd" d="M66.9704 117.132L50.2648 88.189L33.5592 59.2463L66.9705 59.2463L100.397 59.2463L83.6761 88.189L66.9704 117.132Z" fill="#0071BC"/>
<path fill-rule="evenodd" clip-rule="evenodd" d="M33.5595 59.2463L16.8539 88.189L0.148252 117.132L33.5595 117.132L66.9707 117.132L50.2651 88.189L33.5595 59.2463Z" fill="#0071BC"/>
<path fill-rule="evenodd" clip-rule="evenodd" d="M33.5595 175L16.8539 146.073L0.148254 117.114L33.5595 117.114L66.9707 117.114L50.2651 146.073L33.5595 175Z" fill="#0071BC"/>
<path fill-rule="evenodd" clip-rule="evenodd" d="M100.381 59.2445L117.102 30.3018L133.808 1.35913L100.381 1.35913L66.9694 1.35913L83.675 30.3018L100.381 59.2445Z" fill="#0071BC"/>
</g>
</svg>
