<svg width="145" height="46" viewBox="0 0 145 46" fill="none" xmlns="http://www.w3.org/2000/svg">
<path d="M1.4089 4.24577C0.626849 3.50677 0.581339 2.27736 1.30661 1.48257C2.04995 0.667972 3.31677 0.621071 4.11831 1.37847L25.4616 21.5463C26.2968 22.3355 26.2968 23.6645 25.4616 24.4537L4.11831 44.6215C3.31677 45.3789 2.04995 45.332 1.30661 44.5174C0.581341 43.7226 0.62685 42.4932 1.4089 41.7542L19.7174 24.4537C20.5526 23.6645 20.5526 22.3355 19.7174 21.5463L1.4089 4.24577Z" fill="url(#paint0_radial_122_2610)"/>
<path d="M25.4089 4.24577C24.6268 3.50677 24.5813 2.27736 25.3066 1.48257C26.05 0.667972 27.3168 0.621071 28.1183 1.37847L49.4616 21.5463C50.2968 22.3355 50.2968 23.6645 49.4616 24.4537L28.1183 44.6215C27.3168 45.3789 26.05 45.332 25.3066 44.5174C24.5813 43.7226 24.6269 42.4932 25.4089 41.7542L43.7174 24.4537C44.5526 23.6645 44.5526 22.3355 43.7174 21.5463L25.4089 4.24577Z" fill="url(#paint1_radial_122_2610)"/>
<path d="M49.3085 4.19841C48.5745 3.47815 48.5313 2.30983 49.2101 1.53733C49.9439 0.702316 51.2283 0.654823 52.0217 1.43338L72.5452 21.5725C73.3442 22.3565 73.3442 23.6435 72.5452 24.4275L52.0217 44.5666C51.2283 45.3452 49.9439 45.2977 49.2101 44.4627C48.5313 43.6902 48.5745 42.5219 49.3085 41.8016L67.0138 24.4275C67.8127 23.6435 67.8127 22.3565 67.0138 21.5725L49.3085 4.19841Z" fill="url(#paint2_radial_122_2610)"/>
<path d="M72.3085 4.19841C71.5745 3.47815 71.5313 2.30983 72.2101 1.53733C72.9439 0.702316 74.2283 0.654823 75.0217 1.43338L95.5452 21.5725C96.3442 22.3565 96.3442 23.6435 95.5452 24.4275L75.0217 44.5666C74.2283 45.3452 72.9439 45.2977 72.2101 44.4627C71.5313 43.6902 71.5745 42.5219 72.3085 41.8016L90.0138 24.4275C90.8127 23.6435 90.8127 22.3565 90.0138 21.5725L72.3085 4.19841Z" fill="url(#paint3_radial_122_2610)"/>
<path d="M95.4089 4.24577C94.6268 3.50677 94.5813 2.27736 95.3066 1.48257C96.05 0.667972 97.3168 0.621071 98.1183 1.37847L119.462 21.5463C120.297 22.3355 120.297 23.6645 119.462 24.4537L98.1183 44.6215C97.3168 45.3789 96.05 45.332 95.3066 44.5174C94.5813 43.7226 94.6269 42.4932 95.4089 41.7542L113.717 24.4537C114.553 23.6645 114.553 22.3355 113.717 21.5463L95.4089 4.24577Z" fill="url(#paint4_radial_122_2610)"/>
<path d="M119.409 4.24577C118.627 3.50677 118.581 2.27736 119.307 1.48257C120.05 0.667972 121.317 0.621071 122.118 1.37847L143.462 21.5463C144.297 22.3355 144.297 23.6645 143.462 24.4537L122.118 44.6215C121.317 45.3789 120.05 45.332 119.307 44.5174C118.581 43.7226 118.627 42.4932 119.409 41.7542L137.717 24.4537C138.553 23.6645 138.553 22.3355 137.717 21.5463L119.409 4.24577Z" fill="url(#paint5_radial_122_2610)"/>
<defs>
<radialGradient id="paint0_radial_122_2610" cx="0" cy="0" r="1" gradientUnits="userSpaceOnUse" gradientTransform="translate(25.9875 23) rotate(180) scale(32.7375 55.775)">
<stop stop-color="#0071BC"/>
<stop offset="1" stop-color="white" stop-opacity="0"/>
</radialGradient>
<radialGradient id="paint1_radial_122_2610" cx="0" cy="0" r="1" gradientUnits="userSpaceOnUse" gradientTransform="translate(49.9875 23) rotate(180) scale(32.7375 55.775)">
<stop stop-color="#0071BC"/>
<stop offset="1" stop-color="white" stop-opacity="0"/>
</radialGradient>
<radialGradient id="paint2_radial_122_2610" cx="0" cy="0" r="1" gradientUnits="userSpaceOnUse" gradientTransform="translate(73.025 23) rotate(180) scale(31.525 55.775)">
<stop stop-color="#0071BC"/>
<stop offset="1" stop-color="white" stop-opacity="0"/>
</radialGradient>
<radialGradient id="paint3_radial_122_2610" cx="0" cy="0" r="1" gradientUnits="userSpaceOnUse" gradientTransform="translate(96.025 23) rotate(180) scale(31.525 55.775)">
<stop stop-color="#0071BC"/>
<stop offset="1" stop-color="white" stop-opacity="0"/>
</radialGradient>
<radialGradient id="paint4_radial_122_2610" cx="0" cy="0" r="1" gradientUnits="userSpaceOnUse" gradientTransform="translate(119.987 23) rotate(180) scale(32.7375 55.775)">
<stop stop-color="#0071BC"/>
<stop offset="1" stop-color="white" stop-opacity="0"/>
</radialGradient>
<radialGradient id="paint5_radial_122_2610" cx="0" cy="0" r="1" gradientUnits="userSpaceOnUse" gradientTransform="translate(143.987 23) rotate(180) scale(32.7375 55.775)">
<stop stop-color="#0071BC"/>
<stop offset="1" stop-color="white" stop-opacity="0"/>
</radialGradient>
</defs>
</svg>
