<svg width="34" height="46" viewBox="0 0 34 46" fill="none" xmlns="http://www.w3.org/2000/svg">
<path fill-rule="evenodd" clip-rule="evenodd" d="M33.7367 12.986L28.1134 16.2317L22.4902 19.4774V12.986V6.49463L28.1134 9.74032L33.7367 12.986Z" fill="#29ABE2"/>
<path fill-rule="evenodd" clip-rule="evenodd" d="M11.2461 12.9862L16.8693 16.2318L22.4894 19.4775V12.9862V6.4917L16.8693 9.74046L11.2461 12.9862Z" fill="#29ABE2"/>
<path fill-rule="evenodd" clip-rule="evenodd" d="M22.4894 19.4772L16.8693 22.726L11.2461 25.9717V19.4772V12.9858L16.8693 16.2315L22.4894 19.4772Z" fill="#29ABE2"/>
<path fill-rule="evenodd" clip-rule="evenodd" d="M0 19.4772L5.62321 22.726L11.2464 25.9717V19.4772V12.9858L5.62321 16.2315L0 19.4772Z" fill="#29ABE2"/>
<path fill-rule="evenodd" clip-rule="evenodd" d="M22.4902 6.49446L28.1134 3.24569L33.7367 0V6.49446V12.9858L28.1134 9.74015L22.4902 6.49446Z" fill="#29ABE2"/>
<path fill-rule="evenodd" clip-rule="evenodd" d="M0.263672 32.2575L5.88688 35.5032L11.5101 38.7489V32.2575V25.7661L5.88688 29.0118L0.263672 32.2575Z" fill="#0071BC"/>
<path fill-rule="evenodd" clip-rule="evenodd" d="M22.7562 32.2576L17.133 35.5033L11.5098 38.749V32.2576V25.7632L17.133 29.0119L22.7562 32.2576Z" fill="#0071BC"/>
<path fill-rule="evenodd" clip-rule="evenodd" d="M11.5098 38.7487L17.133 41.9944L22.7562 45.2401V38.7487V32.2573L17.133 35.503L11.5098 38.7487Z" fill="#0071BC"/>
<path fill-rule="evenodd" clip-rule="evenodd" d="M34.0003 38.7487L28.3802 41.9944L22.7539 45.2401V38.7487V32.2573L28.3802 35.503L34.0003 38.7487Z" fill="#0071BC"/>
<path fill-rule="evenodd" clip-rule="evenodd" d="M11.5101 25.7664L5.88688 22.5177L0.263672 19.272V25.7664V32.2578L5.88688 29.0121L11.5101 25.7664Z" fill="#0071BC"/>
</svg>
