<svg width="57" height="76" viewBox="0 0 57 76" fill="none" xmlns="http://www.w3.org/2000/svg">
<path fill-rule="evenodd" clip-rule="evenodd" d="M56.5574 54.0725L47.1303 48.6312L37.7031 43.1898V54.0725V64.9551L47.1303 59.5138L56.5574 54.0725Z" fill="#29ABE2"/>
<path fill-rule="evenodd" clip-rule="evenodd" d="M18.8535 54.0722L28.2807 48.6309L37.7027 43.1896V54.0722V64.96L28.2807 59.5135L18.8535 54.0722Z" fill="#29ABE2"/>
<path fill-rule="evenodd" clip-rule="evenodd" d="M37.7027 43.1901L28.2807 37.7437L18.8535 32.3024V43.1901V54.0728L28.2807 48.6314L37.7027 43.1901Z" fill="#29ABE2"/>
<path fill-rule="evenodd" clip-rule="evenodd" d="M0 43.1901L9.42715 37.7437L18.8543 32.3024V43.1901V54.0728L9.42715 48.6314L0 43.1901Z" fill="#29ABE2"/>
<path fill-rule="evenodd" clip-rule="evenodd" d="M37.7031 64.9555L47.1303 70.402L56.5574 75.8433V64.9555V54.0729L47.1303 59.5142L37.7031 64.9555Z" fill="#29ABE2"/>
<path fill-rule="evenodd" clip-rule="evenodd" d="M0.441406 21.7648L9.86855 16.3235L19.2957 10.8822V21.7648V32.6475L9.86855 27.2062L0.441406 21.7648Z" fill="#0071BC"/>
<path fill-rule="evenodd" clip-rule="evenodd" d="M38.1512 21.7641L28.724 16.3228L19.2969 10.8815V21.7641V32.6519L28.724 27.2054L38.1512 21.7641Z" fill="#0071BC"/>
<path fill-rule="evenodd" clip-rule="evenodd" d="M19.2969 10.8825L28.724 5.44121L38.1512 -9.91821e-05V10.8825V21.7651L28.724 16.3238L19.2969 10.8825Z" fill="#0071BC"/>
<path fill-rule="evenodd" clip-rule="evenodd" d="M57.0008 10.8825L47.5788 5.44121L38.1465 -9.91821e-05V10.8825V21.7651L47.5788 16.3238L57.0008 10.8825Z" fill="#0071BC"/>
<path fill-rule="evenodd" clip-rule="evenodd" d="M19.2957 32.6469L9.86855 38.0934L0.441406 43.5347L0.441406 32.6469L0.441406 21.7643L9.86855 27.2056L19.2957 32.6469Z" fill="#0071BC"/>
</svg>
