<svg width="180" height="46" viewBox="0 0 180 46" fill="none" xmlns="http://www.w3.org/2000/svg">
<path d="M59.128 29.988L61.648 32.536C59.632 34.524 57.028 35.448 54.2 35.448C46.92 35.448 43.84 30.436 43.812 25.34C43.784 20.216 47.116 15.008 54.2 15.008C56.86 15.008 59.38 16.016 61.396 18.004L58.932 20.384C57.644 19.124 55.908 18.536 54.2 18.536C49.468 18.536 47.424 22.064 47.452 25.34C47.48 28.588 49.356 31.976 54.2 31.976C55.908 31.976 57.84 31.276 59.128 29.988ZM69.7019 20.916C74.0979 20.916 76.9259 24.164 76.9259 28.112C76.9259 32.088 74.2099 35.308 69.7299 35.308C65.2499 35.308 62.5619 32.088 62.5619 28.112C62.5619 24.164 65.3059 20.916 69.7019 20.916ZM69.7299 24.024C67.2659 24.024 65.9779 26.04 65.9779 28.112C65.9779 30.212 67.2379 32.172 69.7299 32.172C72.2219 32.172 73.4819 30.212 73.4819 28.112C73.4819 26.04 72.0259 24.024 69.7299 24.024ZM92.8641 35H89.4481V27.776C89.4481 25.676 88.3001 24.08 86.1161 24.08C84.0161 24.08 82.5881 25.844 82.5881 27.944V35H79.2001V21.168H82.2521L82.4761 23.044C83.8761 21.672 85.2761 20.972 87.0121 20.972C90.2601 20.972 92.8641 23.408 92.8641 27.748V35ZM105.509 21.168H109.233L103.353 35.056H99.6567L93.7487 21.168H97.4727L99.3767 25.732L101.505 31.556L103.605 25.788L105.509 21.168ZM124.585 29.316H113.805C114.029 31.024 115.513 32.256 117.921 32.256C119.181 32.256 120.833 31.78 121.617 30.968L123.801 33.124C122.345 34.636 119.965 35.364 117.865 35.364C113.105 35.364 110.277 32.424 110.277 28C110.277 23.8 113.133 20.776 117.613 20.776C122.233 20.776 125.117 23.632 124.585 29.316ZM113.861 26.488H121.309C121.085 24.696 119.685 23.8 117.725 23.8C115.877 23.8 114.365 24.696 113.861 26.488ZM127.218 21.196H130.382L130.634 22.792C131.698 21.084 133.126 20.832 134.526 20.832C135.954 20.832 137.326 21.392 138.082 22.148L136.542 25.116C135.842 24.528 135.198 24.22 134.078 24.22C132.286 24.22 130.634 25.172 130.634 27.72V35H127.218V21.196ZM141.633 17.668L145.049 17.304V21.224H148.857V24.164H145.021V30.128C145.021 31.444 145.749 32.088 146.813 32.088C147.345 32.088 147.961 31.92 148.465 31.668L149.417 34.58C148.437 34.972 147.625 35.14 146.589 35.168C143.593 35.28 141.633 33.572 141.633 30.128V24.164H139.057V21.224H141.633V17.668ZM165.109 29.316H154.329C154.553 31.024 156.037 32.256 158.445 32.256C159.705 32.256 161.357 31.78 162.141 30.968L164.325 33.124C162.869 34.636 160.489 35.364 158.389 35.364C153.629 35.364 150.801 32.424 150.801 28C150.801 23.8 153.657 20.776 158.137 20.776C162.757 20.776 165.641 23.632 165.109 29.316ZM154.385 26.488H161.833C161.609 24.696 160.209 23.8 158.249 23.8C156.401 23.8 154.889 24.696 154.385 26.488ZM177.289 30.996L179.585 33.236C177.989 34.804 176.309 35.42 174.265 35.42C170.261 35.42 166.929 33.012 166.929 28.112C166.929 23.212 170.261 20.804 174.265 20.804C176.225 20.804 177.737 21.364 179.249 22.848L177.093 25.116C176.281 24.388 175.273 24.024 174.321 24.024C172.025 24.024 170.345 25.704 170.345 28.112C170.345 30.744 172.137 32.144 174.265 32.144C175.357 32.144 176.449 31.836 177.289 30.996Z" fill="black"/>
<path fill-rule="evenodd" clip-rule="evenodd" d="M33.7367 13.7458L28.1134 16.9915L22.4902 20.2372V13.7458V7.25439L28.1134 10.5001L33.7367 13.7458Z" fill="#29ABE2"/>
<path fill-rule="evenodd" clip-rule="evenodd" d="M11.2461 13.7459L16.8693 16.9916L22.4894 20.2373V13.7459V7.25146L16.8693 10.5002L11.2461 13.7459Z" fill="#29ABE2"/>
<path fill-rule="evenodd" clip-rule="evenodd" d="M22.4894 20.237L16.8693 23.4858L11.2461 26.7314V20.237V13.7456L16.8693 16.9913L22.4894 20.237Z" fill="#29ABE2"/>
<path fill-rule="evenodd" clip-rule="evenodd" d="M0 20.237L5.62321 23.4858L11.2464 26.7314V20.237V13.7456L5.62321 16.9913L0 20.237Z" fill="#29ABE2"/>
<path fill-rule="evenodd" clip-rule="evenodd" d="M22.4902 7.25422L28.1134 4.00546L33.7367 0.759766V7.25422V13.7456L28.1134 10.4999L22.4902 7.25422Z" fill="#29ABE2"/>
<path fill-rule="evenodd" clip-rule="evenodd" d="M0.263672 33.0173L5.88688 36.263L11.5101 39.5087V33.0173V26.5259L5.88688 29.7716L0.263672 33.0173Z" fill="#0071BC"/>
<path fill-rule="evenodd" clip-rule="evenodd" d="M22.7562 33.0174L17.133 36.2631L11.5098 39.5088V33.0174V26.5229L17.133 29.7717L22.7562 33.0174Z" fill="#0071BC"/>
<path fill-rule="evenodd" clip-rule="evenodd" d="M11.5098 39.5085L17.133 42.7542L22.7562 45.9999V39.5085V33.0171L17.133 36.2628L11.5098 39.5085Z" fill="#0071BC"/>
<path fill-rule="evenodd" clip-rule="evenodd" d="M34.0003 39.5085L28.3802 42.7542L22.7539 45.9999V39.5085V33.0171L28.3802 36.2628L34.0003 39.5085Z" fill="#0071BC"/>
<path fill-rule="evenodd" clip-rule="evenodd" d="M11.5101 26.5262L5.88688 23.2774L0.263672 20.0317V26.5262V33.0176L5.88688 29.7719L11.5101 26.5262Z" fill="#0071BC"/>
</svg>
