<svg width="44" height="58" viewBox="0 0 44 58" fill="none" xmlns="http://www.w3.org/2000/svg">
<path fill-rule="evenodd" clip-rule="evenodd" d="M42.7108 16.4401L35.5918 20.5493L28.4727 24.6584V16.4401V8.22192L35.5918 12.331L42.7108 16.4401Z" fill="#29ABE2"/>
<path fill-rule="evenodd" clip-rule="evenodd" d="M14.2393 16.4404L21.3584 20.5495L28.4736 24.6586V16.4404V8.21826L21.3584 12.3313L14.2393 16.4404Z" fill="#29ABE2"/>
<path fill-rule="evenodd" clip-rule="evenodd" d="M28.4736 24.6587L21.3584 28.7716L14.2393 32.8808V24.6587V16.4404L21.3584 20.5495L28.4736 24.6587Z" fill="#29ABE2"/>
<path fill-rule="evenodd" clip-rule="evenodd" d="M0 24.6587L7.1191 28.7716L14.2382 32.8808V24.6587V16.4404L7.1191 20.5495L0 24.6587Z" fill="#29ABE2"/>
<path fill-rule="evenodd" clip-rule="evenodd" d="M28.4727 8.22211L35.5918 4.10911L42.7108 0V8.22211V16.4403L35.5918 12.3312L28.4727 8.22211Z" fill="#29ABE2"/>
<path fill-rule="evenodd" clip-rule="evenodd" d="M0.334961 40.8383L7.45406 44.9475L14.5732 49.0566V40.8383V32.6201L7.45406 36.7292L0.334961 40.8383Z" fill="#0071BC"/>
<path fill-rule="evenodd" clip-rule="evenodd" d="M28.8114 40.8386L21.6923 44.9477L14.5732 49.0568V40.8386V32.6165L21.6923 36.7294L28.8114 40.8386Z" fill="#0071BC"/>
<path fill-rule="evenodd" clip-rule="evenodd" d="M14.5732 49.0566L21.6923 53.1657L28.8114 57.2748V49.0566V40.8384L21.6923 44.9475L14.5732 49.0566Z" fill="#0071BC"/>
<path fill-rule="evenodd" clip-rule="evenodd" d="M43.0448 49.0566L35.9296 53.1657L28.8066 57.2748V49.0566V40.8384L35.9296 44.9475L43.0448 49.0566Z" fill="#0071BC"/>
<path fill-rule="evenodd" clip-rule="evenodd" d="M14.5732 32.6203L7.45406 28.5073L0.334961 24.3982V32.6203V40.8385L7.45406 36.7294L14.5732 32.6203Z" fill="#0071BC"/>
</svg>
